<svg id="Capa_1" enable-background="new 0 0 512 512" height="512" viewBox="0 0 512 512" width="512" xmlns="http://www.w3.org/2000/svg"><g><path d="m445.097 466.308-72.422-72.422c-5.859-5.859-5.859-15.352 0-21.211s15.352-5.859 21.211 0l72.422 72.422c5.859 5.859 5.859 15.352 0 21.211-5.86 5.859-15.352 5.859-21.211 0z" fill="#ff9100"/><path d="m118.114 139.325-72.422-72.422c-5.859-5.859-5.859-15.352 0-21.211s15.352-5.859 21.211 0l72.422 72.422c5.859 5.859 5.859 15.352 0 21.211s-15.351 5.86-21.211 0z" fill="#fabe2c"/><path d="m45.692 466.308c-5.859-5.859-5.859-15.352 0-21.211l72.422-72.422c5.859-5.859 15.352-5.859 21.211 0s5.859 15.352 0 21.211l-72.422 72.422c-5.859 5.859-15.351 5.859-21.211 0z" fill="#fabe2c"/><path d="m372.675 139.325c-5.859-5.859-5.859-15.352 0-21.211l72.422-72.422c5.859-5.859 15.352-5.859 21.211 0s5.859 15.352 0 21.211l-72.422 72.422c-5.859 5.859-15.352 5.86-21.211 0z" fill="#ff9100"/><path d="m322.504 455.761-11.484-27.715c-3.164-7.646.469-16.436 8.115-19.6 7.632-3.149 16.436.469 19.6 8.115l11.484 27.715c3.164 7.646-.469 16.436-8.115 19.6-7.634 3.161-16.432-.456-19.6-8.115z" fill="#ff9100"/><path d="m173.266 95.438-11.484-27.715c-3.164-7.646.469-16.436 8.115-19.6 7.603-3.149 16.45.469 19.6 8.115l11.484 27.715c3.164 7.646-.469 16.436-8.115 19.6-7.634 3.161-16.432-.456-19.6-8.115z" fill="#fabe2c"/><path d="m48.124 342.104c-3.164-7.646.469-16.436 8.115-19.6l27.715-11.484c7.646-3.164 16.436.454 19.6 8.115 3.164 7.646-.469 16.436-8.115 19.6l-27.715 11.484c-7.634 3.161-16.432-.457-19.6-8.115z" fill="#fabe2c"/><path d="m408.446 192.865c-3.164-7.646.469-16.436 8.115-19.6l27.715-11.484c7.646-3.12 16.436.454 19.6 8.115 3.164 7.646-.469 16.436-8.115 19.6l-27.715 11.484c-7.634 3.161-16.431-.456-19.6-8.115z" fill="#ff9100"/><path d="m169.896 463.876c-7.646-3.164-11.279-11.953-8.115-19.6l11.484-27.715c3.164-7.646 11.953-11.279 19.6-8.115s11.279 11.953 8.115 19.6l-11.484 27.715c-3.171 7.664-11.971 11.274-19.6 8.115z" fill="#fabe2c"/><path d="m319.135 103.554c-7.646-3.164-11.279-11.953-8.115-19.6l11.484-27.715c3.164-7.661 11.982-11.279 19.6-8.115 7.646 3.164 11.279 11.953 8.115 19.6l-11.484 27.715c-3.171 7.664-11.972 11.273-19.6 8.115z" fill="#ff9100"/><path d="m83.954 200.98-27.715-11.484c-7.646-3.164-11.279-11.953-8.115-19.6 3.179-7.661 11.997-11.25 19.6-8.115l27.715 11.484c7.646 3.164 11.279 11.953 8.115 19.6-3.171 7.664-11.972 11.274-19.6 8.115z" fill="#fabe2c"/><path d="m444.276 350.219-27.715-11.484c-7.646-3.164-11.279-11.953-8.115-19.6 3.178-7.661 11.997-11.294 19.6-8.115l27.715 11.484c7.646 3.164 11.279 11.953 8.115 19.6-3.171 7.664-11.971 11.273-19.6 8.115z" fill="#ff9100"/><path d="m76 271h-61c-8.291 0-15-6.709-15-15s6.709-15 15-15h61c8.291 0 15 6.709 15 15s-6.709 15-15 15z" fill="#fabe2c"/><path d="m497 271h-61c-8.291 0-15-6.709-15-15s6.709-15 15-15h61c8.291 0 15 6.709 15 15s-6.709 15-15 15z" fill="#ff9100"/><circle cx="256" cy="256" fill="#fabe2c" r="135"/><path d="m391 256c0-74.443-60.557-135-135-135v270c74.443 0 135-60.557 135-135z" fill="#ff9100"/><path d="m256 421c-8.291 0-15 6.709-15 15v61c0 8.291 6.709 15 15 15s15-6.709 15-15v-61c0-8.291-6.709-15-15-15z" fill="#fabe2c"/><path d="m271 497v-61c0-8.291-6.709-15-15-15v91c8.291 0 15-6.709 15-15z" fill="#ff9100"/><path d="m256 0c-8.291 0-15 6.709-15 15v61c0 8.291 6.709 15 15 15s15-6.709 15-15v-61c0-8.291-6.709-15-15-15z" fill="#fabe2c"/><path d="m271 76v-61c0-8.291-6.709-15-15-15v91c8.291 0 15-6.709 15-15z" fill="#ff9100"/></g></svg>