<?xml version="1.0" encoding="iso-8859-1"?>
<!-- Generator: Adobe Illustrator 19.0.0, SVG Export Plug-In . SVG Version: 6.00 Build 0)  -->
<svg version="1.1" id="Capa_1" xmlns="http://www.w3.org/2000/svg" xmlns:xlink="http://www.w3.org/1999/xlink" x="0px" y="0px"
	 viewBox="0 0 512 512" style="enable-background:new 0 0 512 512;" xml:space="preserve">
<path style="fill:#EFDA45;" d="M485.073,389.482c-44.254,69.031-121.587,114.82-209.626,115.01
	c-136.393,0.296-248.386-110.03-250.034-246.413C23.861,129.752,119.202,23.369,242.87,7.533c2.643-0.338,4.365,2.685,2.759,4.811
	c-29.818,39.469-47.496,88.609-47.496,141.89c0,130.132,105.489,235.621,235.621,235.621c16.506,0,32.607-1.693,48.152-4.926
	C484.516,384.386,486.512,387.238,485.073,389.482z"/>
<path style="fill:#EDC148;" d="M481.911,384.925c2.606-0.542,4.601,2.304,3.165,4.544
	c-44.345,69.183-121.908,115.025-210.178,115.025c-137.802,0-249.5-111.708-249.5-249.5c0-55.142,17.883-106.101,48.18-147.407
	c-6.878,22.564-10.64,46.484-10.79,71.266c-0.841,138.838,110.666,251.052,249.507,251.045
	c50.311-0.002,97.141-14.892,136.318-40.516C459.953,388.685,471.069,387.181,481.911,384.925z"/>
<path d="M328.969,372.843c-1.123,0-2.263-0.253-3.337-0.787c-39.917-19.851-73.634-50.293-97.505-88.037
	c-24.534-38.792-37.502-83.67-37.502-129.785c0-49.726,14.729-97.096,42.7-137.671C126.953,35.049,43.863,124.29,33.924,232.586
	c-0.379,4.128-4.032,7.169-8.162,6.79c-4.128-0.379-7.168-4.033-6.79-8.162c5.314-57.899,30.571-112.885,71.119-154.831
	C130.544,34.536,184.47,7.439,241.934,0.085c4.193-0.533,8.276,1.48,10.398,5.14c2.132,3.677,1.854,8.245-0.709,11.637
	c-30.083,39.817-45.985,87.319-45.985,137.373c0,87.208,48.54,165.521,126.678,204.379c3.712,1.846,5.226,6.352,3.379,10.064
	C334.385,371.316,331.729,372.843,328.969,372.843z"/>
<path d="M274.894,512c-63.797,0-124.975-23.537-172.266-66.275c-46.947-42.427-76.513-100.289-83.254-162.927
	c-0.443-4.122,2.539-7.823,6.661-8.267c4.119-0.439,7.823,2.538,8.267,6.661c13.239,123.023,116.671,215.794,240.592,215.794
	c79.328,0,152.55-38.212,197.945-102.751c-12.858,2.077-25.962,3.127-39.086,3.127c-19.947,0-39.786-2.423-58.966-7.201
	c-4.023-1.002-6.472-5.076-5.47-9.099c1.002-4.024,5.077-6.472,9.099-5.469c17.993,4.482,36.612,6.755,55.336,6.755
	c15.726,0,31.414-1.605,46.628-4.77c4.164-0.868,8.415,0.838,10.826,4.341c2.4,3.487,2.475,8.043,0.191,11.606
	C443.845,467.71,362.909,512,274.894,512z"/>
<g>
</g>
<g>
</g>
<g>
</g>
<g>
</g>
<g>
</g>
<g>
</g>
<g>
</g>
<g>
</g>
<g>
</g>
<g>
</g>
<g>
</g>
<g>
</g>
<g>
</g>
<g>
</g>
<g>
</g>
</svg>
