<svg height="511pt" viewBox="-30 0 511 511.99976" width="511pt" xmlns="http://www.w3.org/2000/svg"><path d="m312.90625 512h-312.40625l156.203125-86.78125zm0 0" fill="#6b9777"/><path d="m451.75 512h-277.691406l138.847656-121.492188zm0 0" fill="#85bc94"/><path d="m321.582031 260.339844c0 52.71875-42.738281 95.457031-95.457031 95.457031s-95.457031-42.738281-95.457031-95.457031 42.738281-95.457032 95.457031-95.457032 95.457031 42.738282 95.457031 95.457032zm0 0" fill="#fece2f"/><path d="m167.90625 251.660156c-.839844.003906-1.671875-.121094-2.472656-.363281-4.59375-1.363281-7.210938-6.191406-5.851563-10.785156 6.703125-22.449219 24.265625-40.011719 46.714844-46.714844 4.605469-1.332031 9.417969 1.320313 10.75 5.921875 1.316406 4.558594-1.265625 9.328125-5.804687 10.714844-16.828126 5.027344-29.996094 18.195312-35.023438 35.023437-1.09375 3.679688-4.476562 6.203125-8.3125 6.203125zm0 0" fill="#f3c52d"/><path d="m259.101562 38.183594-26.035156-34.710938c-.101562-.136718-.277344-.179687-.390625-.304687-2.863281-3.617188-8.117187-4.226563-11.738281-1.363281-.503906.402343-.960938.859374-1.363281 1.363281-.113281.125-.285157.167969-.390625.304687l-26.035156 34.710938c-2.875 3.835937-2.097657 9.273437 1.738281 12.152344 3.832031 2.875 9.273437 2.097656 12.148437-1.738282l10.414063-13.882812v43.390625c0 4.789062 3.882812 8.675781 8.675781 8.675781s8.679688-3.886719 8.679688-8.675781v-43.390625l10.414062 13.882812c2.878906 3.832032 8.316406 4.601563 12.148438 1.722656 3.828124-2.875 4.601562-8.304687 1.734374-12.136718zm0 0" fill="#fd9226"/><path d="m318.164062 176.980469c-4.792968-.003907-8.675781-3.886719-8.675781-8.679688 0-2.300781.914063-4.507812 2.539063-6.132812l12.28125-12.28125c3.445312-3.328125 8.941406-3.234375 12.269531.214843 3.25 3.363282 3.25 8.695313 0 12.054688l-12.277344 12.273438c-1.628906 1.628906-3.835937 2.546874-6.136719 2.550781zm0 0" fill="#fbb540"/><path d="m328.8125 371.867188c-2.300781 0-4.507812-.914063-6.136719-2.542969l-12.269531-12.269531c-3.390625-3.386719-3.394531-8.882813-.003906-12.273438 3.386718-3.390625 8.882812-3.394531 12.273437-.003906l12.28125 12.277344c3.386719 3.390624 3.386719 8.882812-.003906 12.273437-1.628906 1.628906-3.839844 2.542969-6.140625 2.539063zm0 0" fill="#fbb540"/><path d="m134.085938 176.980469c-2.300782 0-4.507813-.914063-6.132813-2.542969l-12.28125-12.28125c-3.328125-3.445312-3.234375-8.941406.214844-12.269531 3.363281-3.246094 8.695312-3.246094 12.058593 0l12.269532 12.28125c3.386718 3.386719 3.386718 8.882812-.003906 12.269531-1.625 1.628906-3.832032 2.542969-6.132813 2.542969zm0 0" fill="#fbb540"/><g fill="#fece2f"><path d="m95.957031 269.019531h-34.710937c-4.792969 0-8.679688-3.886719-8.679688-8.679687 0-4.792969 3.886719-8.679688 8.679688-8.679688h34.710937c4.792969 0 8.675781 3.886719 8.675781 8.679688 0 4.792968-3.882812 8.679687-8.675781 8.679687zm0 0"/><path d="m226.125 416.542969c-4.792969 0-8.675781-3.886719-8.675781-8.679688v-17.355469c0-4.792968 3.882812-8.675781 8.675781-8.675781s8.679688 3.882813 8.679688 8.675781v17.355469c0 4.792969-3.886719 8.679688-8.679688 8.679688zm0 0"/><path d="m391.007812 269.019531h-34.710937c-4.792969 0-8.679687-3.886719-8.679687-8.679687 0-4.792969 3.886718-8.679688 8.679687-8.679688h34.710937c4.792969 0 8.675782 3.886719 8.675782 8.679688 0 4.792968-3.882813 8.679687-8.675782 8.679687zm0 0"/><path d="m226.125 138.847656c-4.792969 0-8.675781-3.882812-8.675781-8.675781v-17.355469c0-4.792968 3.882812-8.679687 8.675781-8.679687s8.679688 3.886719 8.679688 8.679687v17.355469c0 4.792969-3.886719 8.675781-8.679688 8.675781zm0 0"/></g><path d="m121.808594 373.335938c-4.792969-.003907-8.675782-3.886719-8.675782-8.679688 0-2.300781.914063-4.507812 2.539063-6.132812l12.28125-12.273438c3.527344-3.246094 9.015625-3.015625 12.261719.507812 3.054687 3.324219 3.054687 8.433594 0 11.753907l-12.28125 12.28125c-1.625 1.625-3.828125 2.539062-6.125 2.542969zm0 0" fill="#fbb540"/></svg>