<?xml version="1.0"?>
<svg xmlns="http://www.w3.org/2000/svg" viewBox="0 0 64 64" width="512" height="512"><g id="Medical_Report-2" data-name="Medical Report"><path d="M27,9a3,3,0,1,1,3-3A3,3,0,0,1,27,9Zm0-4a1,1,0,1,0,1,1A1,1,0,0,0,27,5Z" style="fill:#cc7400"/><rect x="6" y="9" width="42" height="52" rx="4" style="fill:#8b5e3c"/><rect x="11" y="13" width="32" height="44" rx="1" style="fill:#e6e7e8"/><rect x="15" y="22" width="24" height="10" style="fill:#78b9eb"/><path d="M40,13v1a2.006,2.006,0,0,1-2,2H16a2.006,2.006,0,0,1-2-2V8H40v5Z" style="fill:#ffa733"/><path d="M43,30V56a1,1,0,0,1-1,1H16Z" style="fill:#d8d7da"/><path d="M58,46A12,12,0,1,1,43,34.38,11.858,11.858,0,0,1,46,34,12.014,12.014,0,0,1,58,46Z" style="fill:#ffd422"/><polygon points="53 44 53 48 48 48 48 53 44 53 44 48 39 48 39 44 44 44 44 39 48 39 48 44 53 44" style="fill:#ff5023"/><rect x="14" y="37" width="4" height="2" style="fill:#57565c"/><rect x="20" y="37" width="12" height="2" style="fill:#787680"/><rect x="14" y="41" width="18" height="2" style="fill:#787680"/><rect x="14" y="45" width="8" height="2" style="fill:#787680"/><rect x="24" y="45" width="6" height="2" style="fill:#57565c"/></g></svg>
