<?xml version="1.0" encoding="iso-8859-1"?>
<!-- Generator: Adobe Illustrator 19.0.0, SVG Export Plug-In . SVG Version: 6.00 Build 0)  -->
<svg version="1.1" id="Layer_1" xmlns="http://www.w3.org/2000/svg" xmlns:xlink="http://www.w3.org/1999/xlink" x="0px" y="0px"
	 viewBox="0 0 512 512" style="enable-background:new 0 0 512 512;" xml:space="preserve">
<circle style="fill:#FFD153;" cx="256" cy="256" r="256"/>
<path style="fill:#F7CB09;" d="M157.125,278.134c-10.532,39.263-29.332,109.523-29.027,109.523l124.297,124.297
	c1.202,0.017,2.4,0.046,3.605,0.046c135.385,0,246.208-105.099,255.371-238.158L358.322,120.792
	c0.423-0.423-8.66,94.511-15.762,168.14l-168.14-168.14L157.125,278.134z"/>
<rect x="128.094" y="145.68" style="fill:#FFFFFF;" width="255.801" height="241.977"/>
<rect x="255.478" y="145.68" style="fill:#E0F2FF;" width="128.428" height="241.977"/>
<rect x="128.094" y="145.68" style="fill:#2B5C70;" width="255.801" height="58.075"/>
<rect x="255.478" y="145.68" style="fill:#1E495F;" width="128.428" height="58.075"/>
<g>
	<rect x="155.752" y="234.172" style="fill:#CADBE6;" width="30.417" height="30.417"/>
	<rect x="155.752" y="280.492" style="fill:#CADBE6;" width="30.417" height="30.417"/>
	<rect x="155.752" y="326.813" style="fill:#CADBE6;" width="30.417" height="30.417"/>
	<rect x="211.749" y="234.172" style="fill:#CADBE6;" width="30.417" height="30.417"/>
	<rect x="211.749" y="280.492" style="fill:#CADBE6;" width="30.417" height="30.417"/>
	<rect x="211.749" y="326.813" style="fill:#CADBE6;" width="30.417" height="30.417"/>
</g>
<g>
	<rect x="267.755" y="234.172" style="fill:#B1C9DA;" width="30.417" height="30.417"/>
	<rect x="267.755" y="280.492" style="fill:#B1C9DA;" width="30.417" height="30.417"/>
	<rect x="267.755" y="326.813" style="fill:#B1C9DA;" width="30.417" height="30.417"/>
</g>
<g>
	<rect x="323.751" y="234.172" style="fill:#FF8468;" width="30.417" height="30.417"/>
	<rect x="323.751" y="280.492" style="fill:#FF8468;" width="30.417" height="30.417"/>
	<rect x="323.751" y="326.813" style="fill:#FF8468;" width="30.417" height="30.417"/>
</g>
<rect x="153.673" y="120.79" style="fill:#1E495F;" width="20.741" height="48.4"/>
<rect x="337.575" y="120.79" style="fill:#1D384E;" width="20.741" height="48.4"/>
<g>
</g>
<g>
</g>
<g>
</g>
<g>
</g>
<g>
</g>
<g>
</g>
<g>
</g>
<g>
</g>
<g>
</g>
<g>
</g>
<g>
</g>
<g>
</g>
<g>
</g>
<g>
</g>
<g>
</g>
</svg>
