<svg id="Capa_1" enable-background="new 0 0 512 512" height="512" viewBox="0 0 512 512" width="512" xmlns="http://www.w3.org/2000/svg"><g><circle cx="256" cy="256" fill="#9cd6f4" r="256"/><path d="m511.599 270.238-145.281-145.282-20.115-.058-20-20-20.116-.058-20-20-140.405 342.319 83.439 83.439c8.835.922 17.8 1.402 26.879 1.402 136.606 0 248.21-107.001 255.599-241.762z" fill="#7fa6fb"/><g><path d="m145.682 124.956h220.635v302.203h-220.635z" fill="#dfe5f2"/><path d="m256 124.956h110.317v302.203h-110.317z" fill="#c7cdde"/><path d="m165.74 145.014h180.52v262.088h-180.52z" fill="#f1f6ff"/><path d="m256 145.014h90.26v262.088h-90.26z" fill="#dfe5f2"/><g><path d="m286.087 104.898v-20.057h-60.173v20.058h-40.115v40.116h140.404v-40.116h-40.116z" fill="#5a5f64"/></g><path d="m326.202 104.898v40.116h-70.202v-60.173h30.087v20.057z" fill="#4b5055"/><g><path d="m205.856 266.698h100.289v20.058h-100.289z" fill="#5a5f64"/></g><g><path d="m205.856 346.928h50.144v20.058h-50.144z" fill="#5a5f64"/></g><g><path d="m205.856 306.813h100.289v20.058h-100.289z" fill="#5a5f64"/></g><path d="m256 266.698h50.144v20.058h-50.144z" fill="#4b5055"/><path d="m256 306.813h50.144v20.058h-50.144z" fill="#4b5055"/><path d="m286.087 206.524v20.058h-20.058v20.058h-20.058v-20.058h-20.058v-20.058h20.058v-20.057h20.058v20.057z" fill="#e27a4e"/><path d="m286.087 206.524v20.058h-20.058v20.058h-10.029v-60.173h10.029v20.057z" fill="#dc455b"/></g></g></svg>