<svg id="Capa_1" enable-background="new 0 0 512 512" height="512" viewBox="0 0 512 512" width="512" xmlns="http://www.w3.org/2000/svg"><g><circle cx="256" cy="256" fill="#f3d652" r="256"/><path d="m512 256c0-5.919-.219-11.787-.614-17.606l-148.394-148.394-136.172 77.812 19.453 19.453-38.906 176.375-68.745 50.292s54.321 54.335 97.274 97.285c6.635.516 13.338.783 20.104.783 141.385 0 256-114.615 256-256z" fill="#e9bc3e"/><g><g><path d="m207.367 372.157.013.008z" fill="none"/><g fill="#e27a4e"><path d=""/><path d="m207.367 372.157.013.008z"/><path d="m382.445 187.266v48.632l-87.539 12.645-87.539-12.645v-48.632h38.906v-29.18h97.266v29.18z"/></g><path d="m382.445 187.266v48.632l-87.539 12.645v-90.457h48.633v29.18z" fill="#dc455b"/><path d="m382.445 235.898v147.196h-128.105l-46.973-10.937v-136.259z" fill="#f1f6ff"/><path d="m294.906 235.898h87.539v147.195h-87.539z" fill="#dfe5f2"/></g><path d="m324.086 285.828v19.453h-19.453v19.453h-19.453v-19.453h-19.453v-19.453h19.453v-19.453h19.453v19.453z" fill="#e27a4e"/><path d="m324.086 285.828v19.453h-19.453v19.453h-9.727v-58.359h9.727v19.453z" fill="#dc455b"/><g><path d="m226.82 90v77.812h136.172v-77.812z" fill="#f1f6ff"/></g><path d="m294.906 90h68.086v77.812h-68.086z" fill="#dfe5f2"/><path d="m236.547 363.641h-38.906l-6.268 27.883 6.268 30.476h38.906c16.09 0 29.18-13.09 29.18-29.18 0-16.089-13.09-29.179-29.18-29.179z" fill="#7fa6fb"/><path d="m158.734 363.641c-16.09 0-29.18 13.09-29.18 29.18s13.09 29.18 29.18 29.18h38.906v-58.359h-38.906z" fill="#e27a4e"/></g></g></svg>